<svg xmlns="http://www.w3.org/2000/svg" width="17.718" height="18" viewBox="0 0 17.718 18"><path d="M1042.591,197.806a1.964,1.964,0,0,0-1.961,1.961v8.722h8.283V197.806Zm4.6,6.877a.374.374,0,1,1-.747,0v-2.633a.374.374,0,1,1,.747,0Z" transform="translate(-1040.63 -197.806)"/><path d="M1060.188,197.806h-6.322V208.49h8.283v-8.722a1.964,1.964,0,0,0-1.961-1.961Zm-4.111,6.877a.374.374,0,0,1-.747,0v-2.633a.374.374,0,0,1,.747,0Z" transform="translate(-1044.432 -197.806)"/><path d="M1040.63,216.144h17.717v-2.03H1040.63Zm9.34-.671h-.963a.374.374,0,1,1,0-.747h.963a.374.374,0,1,1,0,.747" transform="translate(-1040.63 -202.568)"/><path d="M1040.63,218.076v.448a1.965,1.965,0,0,0,1.5,1.9v.914a.377.377,0,0,0,.754,0v-.85h13.209v.85a.377.377,0,0,0,.755,0v-.914a1.965,1.965,0,0,0,1.5-1.9v-.448Zm9.34,1.351h-.963a.374.374,0,1,1,0-.747h.963a.374.374,0,1,1,0,.747" transform="translate(-1040.63 -203.709)"/></svg>