<svg xmlns="http://www.w3.org/2000/svg" width="18" height="13.415" viewBox="0 0 18 13.415"><path d="M1058.431,168.353a9.768,9.768,0,0,0-.472-3.271.983.983,0,0,1,.015-.729c.514-1.114.542-1.914.1-2.357a1.153,1.153,0,0,0-.857-.314,3.724,3.724,0,0,0-1.557.443.955.955,0,0,1-.4.086.969.969,0,0,1-.343-.057,12.336,12.336,0,0,0-4.057-.515H1048a12.972,12.972,0,0,0-4.072.5,1.011,1.011,0,0,1-.743-.028,3.95,3.95,0,0,0-1.557-.443,1.154,1.154,0,0,0-.857.314c-.443.458-.4,1.243.115,2.371a.92.92,0,0,1,.014.728,11.6,11.6,0,0,0,0,6.543.985.985,0,0,1-.014.728c-.514,1.115-.543,1.915-.1,2.357a1.153,1.153,0,0,0,.856.315,3.713,3.713,0,0,0,1.557-.443.969.969,0,0,1,.4-.086.957.957,0,0,1,.343.057,12.945,12.945,0,0,0,4.072.5h2.857a12.944,12.944,0,0,0,4.071-.5.957.957,0,0,1,.343-.057.969.969,0,0,1,.4.086,3.949,3.949,0,0,0,1.557.443,1.154,1.154,0,0,0,.857-.315c.443-.443.414-1.243-.1-2.357a.922.922,0,0,1-.014-.728A10.645,10.645,0,0,0,1058.431,168.353Zm-14.4-2.6a5.313,5.313,0,0,0-.457,2.6.429.429,0,0,1-.857,0,6.2,6.2,0,0,1,.586-3.057.423.423,0,0,1,.585-.143.436.436,0,0,1,.143.6" transform="translate(-1040.431 -161.638)"/></svg>