<svg xmlns="http://www.w3.org/2000/svg" width="12.857" height="18" viewBox="0 0 12.857 18"><path d="M1056.28,48.911h-1.929V45.7h.643a.643.643,0,0,0,.643-.643v-4.5a.643.643,0,0,0-.643-.643h-9a.643.643,0,0,0-.643.643v4.5a.643.643,0,0,0,.643.643h.643v3.214h-1.929a.643.643,0,0,0-.643.643v1.929a.643.643,0,0,0,.643.643v5.143a.643.643,0,0,0,1.286,0V55.661l1.286-.964v.643a.643.643,0,1,0,1.286,0V52.125h3.857V55.34a.643.643,0,0,0,1.286,0V54.7l1.286.964v1.608a.643.643,0,0,0,1.286,0V52.125a.643.643,0,0,0,.643-.643V49.554a.643.643,0,0,0-.643-.643m-9,4.179-1.286.964V52.125h1.286Zm.643-7.393h5.143v3.214h-5.143Zm7.071,8.357-1.286-.964v-.965h1.286Z" transform="translate(-1044.066 -39.911)"/></svg>